#define noname_width 86
#define noname_height 52
static char noname_bits[] = {
 0x00,0x00,0x00,0x00,0x00,0x00,0x00,0x00,0x00,0x48,0x00,0x00,0x00,0x00,0x00,
 0x00,0x00,0x00,0x00,0xf4,0x9f,0x00,0x00,0x00,0x00,0x00,0x00,0x00,0xf0,0xf7,
 0x07,0x58,0x00,0x00,0x00,0x00,0x1c,0x00,0xfe,0xef,0x17,0x00,0x00,0x00,0x00,
 0x00,0x00,0xc2,0xff,0xfd,0x2f,0x00,0x00,0x00,0x00,0x00,0x00,0x00,0xe4,0xff,
 0x05,0x00,0x00,0x00,0x00,0x00,0x00,0x00,0xf8,0x17,0x00,0x00,0x00,0x00,0x00,
 0x00,0x00,0x00,0xe0,0x0f,0x3c,0x00,0x00,0x00,0x00,0x00,0x00,0x00,0x00,0xbf,
 0x01,0xe4,0x01,0x00,0x00,0x00,0x00,0x00,0x00,0xf8,0x81,0x01,0x04,0x0f,0x00,
 0x00,0x00,0x00,0x00,0x00,0x0f,0x80,0x01,0x04,0x78,0xc0,0x0f,0x00,0x00,0x00,
 0x00,0xf1,0x85,0x01,0x04,0xc0,0xf3,0x3a,0x00,0x00,0x00,0x00,0x89,0x83,0x01,
 0x04,0x00,0xfe,0xd9,0x00,0x00,0x00,0x00,0x05,0x97,0x01,0x04,0x00,0xf0,0x60,
 0x03,0x00,0x00,0x00,0x05,0x87,0x01,0x04,0x00,0x80,0x87,0x0d,0x00,0x00,0x00,
 0x05,0x97,0x01,0x04,0x00,0x00,0x3c,0x16,0x00,0x00,0x00,0x89,0x83,0x01,0x04,
 0xe0,0x00,0xe2,0x2d,0x00,0x00,0x00,0xf1,0x85,0x01,0x04,0x58,0x03,0x02,0x2f,
 0x00,0x00,0x00,0x01,0x80,0x01,0x04,0x54,0x05,0x3a,0x78,0x00,0x00,0x00,0x01,
 0x9e,0x01,0x04,0x5a,0x05,0xca,0xc1,0x03,0x00,0x00,0x41,0xb9,0x01,0x04,0x5a,
 0x0d,0x4a,0x0e,0x1e,0x00,0x00,0x01,0x9e,0x01,0x04,0x55,0x0d,0x0a,0x73,0xf0,
 0x00,0x00,0x41,0x80,0x01,0x04,0x55,0x1d,0x0a,0x93,0x83,0x07,0x00,0xf1,0x81,
 0x01,0x84,0x56,0x15,0x0a,0x83,0x4c,0x3c,0x00,0x89,0x83,0x01,0x84,0x56,0x15,
 0x2a,0x03,0x5a,0xe0,0x01,0x05,0x87,0x01,0x84,0x56,0x35,0x7a,0x0b,0x58,0x00,
 0x0f,0x05,0x97,0x01,0x44,0x55,0x35,0x82,0x2f,0x59,0x00,0x30,0x05,0x87,0x01,
 0x44,0x55,0x35,0x02,0xf0,0x59,0x70,0x20,0x89,0x83,0x01,0x44,0x55,0x35,0xa2,
 0x01,0x5e,0xa8,0x20,0xf1,0x81,0x01,0x44,0x55,0x55,0xa2,0x69,0x40,0x54,0x21,
 0x41,0x80,0x01,0x44,0x55,0x55,0x02,0x68,0x4d,0x54,0x21,0xff,0xff,0x01,0x44,
 0x55,0x55,0x1a,0x00,0x4d,0x5a,0x23,0x01,0x00,0x00,0x44,0x55,0x55,0xaa,0x01,
 0x40,0x5d,0x23,0x01,0x00,0x00,0x44,0x55,0x55,0xaa,0x9a,0x41,0x55,0x25,0x71,
 0x00,0x00,0x84,0x56,0x55,0x9a,0xaa,0x4a,0x55,0x25,0x71,0x00,0x00,0x84,0x56,
 0x55,0x82,0xa9,0x5a,0x55,0x25,0x01,0xc0,0x00,0x84,0x56,0x35,0x1a,0x98,0x59,
 0x55,0x25,0x71,0x20,0x01,0x04,0x55,0x35,0xea,0x07,0x48,0x55,0x25,0x71,0xc0,
 0x00,0x04,0x55,0x35,0x0a,0xf8,0x41,0x5a,0x25,0x01,0x00,0x00,0x04,0x55,0x15,
 0x6a,0x00,0x5e,0x5a,0x23,0x71,0x00,0x00,0x04,0x5b,0x15,0x2a,0x00,0x50,0x54,
 0x23,0x71,0xc0,0x00,0x04,0x5a,0x1d,0x2a,0x00,0x56,0x54,0x21,0x01,0x20,0x01,
 0x04,0x54,0x0d,0x2a,0x00,0x54,0xd8,0x20,0x71,0xc0,0x00,0x04,0x6c,0x0d,0x2a,
 0x00,0x54,0x70,0x20,0x71,0x00,0x00,0x04,0x58,0x07,0x2a,0x00,0x50,0x00,0x35,
 0x01,0x00,0x00,0x04,0xe0,0x01,0x0a,0xf8,0x5f,0x55,0x20,0x01,0x00,0x00,0x04,
 0x00,0x00,0xfa,0x0f,0x40,0xc0,0x1f,0x01,0x00,0x00,0x04,0x40,0x55,0x02,0x00,
 0xe0,0x7f,0x00,0x55,0x55,0x55,0x55,0x15,0x00,0x02,0xf8,0x3f,0x00,0x00,0x01,
 0x00,0x00,0x04,0x00,0x00,0xff,0x0f,0x00,0x00,0x00,0x03,0x00,0x00,0x0e,0xf0,
 0xff,0x01,0x00,0x00,0x00,0x00,0xfe,0xff,0xff,0xff,0x1f,0x00,0x00,0x00,0x00,
 0x00,0x00};
