#define iconify16_width 16
#define iconify16_height 16
static char iconify16_bits[] = {
   0x00, 0x00, 0x00, 0x00, 0xfc, 0x7f, 0x04, 0x40, 0x84, 0x43, 0xe4, 0x4f,
   0xe4, 0x4f, 0xf4, 0x5f, 0xf4, 0x5f, 0xf4, 0x5f, 0xe4, 0x4f, 0xe4, 0x4f,
   0x84, 0x43, 0x04, 0x40, 0xfc, 0x7f, 0x00, 0x00};
