#define uno_on_width 16
#define uno_on_height 16
static unsigned char uno_on_bits[] = {
   0xe0, 0x07, 0xf8, 0x1f, 0x1c, 0x38, 0xce, 0x73, 0xe6, 0x67, 0xf3, 0xcf,
   0xfb, 0xdf, 0xfb, 0xdf, 0xfb, 0xdf, 0xfb, 0xdf, 0xf3, 0xcf, 0xe6, 0x67,
   0xce, 0x73, 0x1c, 0x38, 0xf8, 0x1f, 0xe0, 0x07};
