#define noname_width 16
#define noname_height 16
static char noname_bits[] = {
 0x00,0x00,0xfc,0x3f,0x02,0x60,0x02,0x50,0xf2,0x6f,0x12,0x58,0x12,0x68,0x12,
 0x58,0x12,0x68,0x12,0x58,0x12,0x68,0xf2,0x5f,0xaa,0x6a,0x54,0x55,0xfc,0x3f,
 0x00,0x00};
