#define pirate_width 16
#define pirate_height 16
static char pirate_bits[] = {
   0xc0, 0x03, 0xe0, 0x07, 0xf0, 0x0f, 0x98, 0x19, 0x98, 0x19, 0xf0, 0x0f,
   0xe0, 0x07, 0xc0, 0x03, 0x42, 0x42, 0xc3, 0xc3, 0x84, 0x21, 0x38, 0x1c,
   0xc0, 0x03, 0xf1, 0x8f, 0x1f, 0xf8, 0x02, 0x40};
