#define question_width 32
#define question_height 32
static char question_bits[] = {
   0x00, 0xe0, 0x3f, 0x00, 0x00, 0x18, 0xe0, 0x00, 0x00, 0x04, 0x80, 0x01,
   0x00, 0xfe, 0x03, 0x03, 0x00, 0x03, 0x0c, 0x02, 0x80, 0x00, 0x10, 0x06,
   0x40, 0x00, 0x20, 0x04, 0x20, 0x00, 0x40, 0x04, 0x20, 0x00, 0x40, 0x04,
   0x10, 0x70, 0x80, 0x04, 0x10, 0x88, 0x80, 0x04, 0x10, 0x04, 0x81, 0x04,
   0x10, 0x04, 0x81, 0x04, 0x10, 0x04, 0x81, 0x06, 0x10, 0x84, 0x80, 0x02,
   0xf0, 0x47, 0x40, 0x03, 0x00, 0x20, 0x40, 0x01, 0x00, 0x10, 0x60, 0x01,
   0x00, 0x10, 0x90, 0x00, 0x00, 0x08, 0x68, 0x00, 0x00, 0x08, 0x28, 0x00,
   0x00, 0x08, 0x24, 0x00, 0x00, 0x08, 0x14, 0x00, 0x00, 0x08, 0x2c, 0x00,
   0x00, 0xf8, 0x37, 0x00, 0x00, 0x10, 0x28, 0x00, 0x00, 0xf8, 0x27, 0x00,
   0x00, 0x08, 0x24, 0x00, 0x00, 0x08, 0x24, 0x00, 0x00, 0x08, 0x14, 0x00,
   0x00, 0x08, 0x0c, 0x00, 0x00, 0xf8, 0x07, 0x00};
