#define shadow_right_width 36
#define shadow_right_height 32
static char shadow_right_bits[] = {
   0x00, 0x00, 0x02, 0x00, 0x00, 0x00, 0x00, 0x06, 0x00, 0x00, 0x00, 0x00,
   0x0a, 0x00, 0x00, 0x00, 0x00, 0x12, 0x00, 0x00, 0x00, 0x00, 0x22, 0x00,
   0x00, 0x00, 0x00, 0x42, 0x00, 0x00, 0xfe, 0xff, 0x83, 0x00, 0x00, 0x02,
   0x00, 0x00, 0x01, 0x00, 0x02, 0x00, 0x00, 0x02, 0x00, 0x02, 0x00, 0x00,
   0x04, 0x00, 0x02, 0x00, 0x00, 0x08, 0x00, 0x02, 0x00, 0x00, 0x10, 0x00,
   0x02, 0x00, 0x00, 0x20, 0x00, 0x02, 0x00, 0x00, 0x40, 0x00, 0x02, 0x00,
   0x00, 0x80, 0x00, 0x02, 0x00, 0x00, 0x80, 0x01, 0x02, 0x00, 0x00, 0xc0,
   0x02, 0x02, 0x00, 0x00, 0x60, 0x05, 0x02, 0x00, 0x00, 0xb0, 0x02, 0x02,
   0x00, 0x00, 0x58, 0x01, 0x02, 0x00, 0x00, 0xac, 0x00, 0xfe, 0xff, 0x03,
   0x56, 0x00, 0xfc, 0xff, 0x03, 0x2b, 0x00, 0xa8, 0xaa, 0x82, 0x15, 0x00,
   0x50, 0x55, 0xc3, 0x0a, 0x00, 0xa0, 0xaa, 0x62, 0x05, 0x00, 0x00, 0x00,
   0xb2, 0x02, 0x00, 0x00, 0x00, 0x5a, 0x01, 0x00, 0x00, 0x00, 0xae, 0x00,
   0x00, 0x00, 0x00, 0x54, 0x00, 0x00, 0x00, 0x00, 0x28, 0x00, 0x00, 0x00,
   0x00, 0x10, 0x00, 0x00};
