#define shadow_left_width 36
#define shadow_left_height 32
static char shadow_left_bits[] = {
   0x00, 0x80, 0x00, 0x00, 0x00, 0x00, 0xc0, 0x01, 0x00, 0x00, 0x00, 0xa0,
   0x02, 0x00, 0x00, 0x00, 0x90, 0x05, 0x00, 0x00, 0x00, 0x88, 0x02, 0x00,
   0x00, 0x00, 0x84, 0x05, 0x00, 0x00, 0x00, 0x82, 0xff, 0xff, 0x00, 0x00,
   0x01, 0x00, 0x80, 0x01, 0x80, 0x00, 0x00, 0x80, 0x02, 0x40, 0x00, 0x00,
   0x80, 0x05, 0x20, 0x00, 0x00, 0x80, 0x02, 0x10, 0x00, 0x00, 0x80, 0x05,
   0x08, 0x00, 0x00, 0x80, 0x02, 0x04, 0x00, 0x00, 0x80, 0x05, 0x02, 0x00,
   0x00, 0x80, 0x02, 0x04, 0x00, 0x00, 0x80, 0x05, 0x08, 0x00, 0x00, 0x80,
   0x02, 0x10, 0x00, 0x00, 0x80, 0x05, 0x20, 0x00, 0x00, 0x80, 0x02, 0x40,
   0x00, 0x00, 0x80, 0x05, 0x80, 0x00, 0x00, 0x80, 0x02, 0x00, 0x81, 0xff,
   0xff, 0x05, 0x00, 0x82, 0xff, 0xff, 0x02, 0x00, 0x84, 0x55, 0x55, 0x05,
   0x00, 0x88, 0xaa, 0xaa, 0x02, 0x00, 0x90, 0x55, 0x55, 0x05, 0x00, 0xa0,
   0x02, 0x00, 0x00, 0x00, 0xc0, 0x05, 0x00, 0x00, 0x00, 0x80, 0x02, 0x00,
   0x00, 0x00, 0x00, 0x05, 0x00, 0x00, 0x00, 0x00, 0x02, 0x00, 0x00, 0x00,
   0x00, 0x04, 0x00, 0x00};
