#define slide_width 62
#define slide_height 66
static char slide_bits[] = {
   0x00, 0x00, 0x00, 0x00, 0x00, 0x00, 0x00, 0xc0, 0x00, 0x00, 0x00, 0x00,
   0x00, 0x00, 0x00, 0xc0, 0x00, 0x00, 0x00, 0x00, 0x00, 0x00, 0x00, 0xc0,
   0x00, 0x00, 0x00, 0x00, 0x00, 0x00, 0x00, 0xc0, 0x00, 0x00, 0x00, 0x00,
   0x00, 0x00, 0x00, 0xc0, 0x00, 0x00, 0x00, 0x00, 0x00, 0x00, 0x00, 0xc0,
   0x00, 0x00, 0x00, 0x00, 0x00, 0x00, 0x00, 0xc0, 0x00, 0x00, 0x00, 0x00,
   0x00, 0x00, 0x00, 0xc0, 0x00, 0x00, 0x00, 0x00, 0x00, 0x00, 0x00, 0xc0,
   0x00, 0x00, 0x00, 0xff, 0x03, 0x00, 0x00, 0xc0, 0x00, 0x00, 0x00, 0x4b,
   0x06, 0x00, 0x00, 0xc0, 0x00, 0x00, 0x00, 0x26, 0x0d, 0x00, 0x00, 0xc0,
   0x00, 0x00, 0x00, 0x56, 0x1c, 0x00, 0x00, 0xc0, 0x00, 0x00, 0x00, 0x2a,
   0x2d, 0x00, 0x00, 0xc0, 0x00, 0x00, 0x00, 0x54, 0xfe, 0x07, 0x00, 0xc0,
   0x00, 0x00, 0x00, 0x34, 0xcb, 0x02, 0x00, 0xc0, 0x00, 0x00, 0x00, 0xfb,
   0x9f, 0x07, 0x00, 0xc0, 0x00, 0x00, 0x80, 0xff, 0xf7, 0x1a, 0x00, 0xc0,
   0x00, 0x00, 0x00, 0xe8, 0xc3, 0x0f, 0x00, 0xc0, 0x00, 0x00, 0x00, 0x00,
   0x80, 0x0f, 0x00, 0xc0, 0x00, 0x00, 0x00, 0x00, 0x00, 0x07, 0x00, 0xc0,
   0x00, 0x00, 0x00, 0x00, 0x00, 0x07, 0x00, 0xc0, 0x00, 0x00, 0x00, 0x00,
   0x00, 0x07, 0x00, 0xc0, 0x00, 0x00, 0x00, 0x00, 0x00, 0x07, 0x00, 0xc0,
   0x00, 0x00, 0x00, 0x00, 0x00, 0x07, 0x00, 0xc0, 0x00, 0x00, 0x00, 0x00,
   0x00, 0x07, 0x00, 0xc0, 0x00, 0x00, 0x00, 0x00, 0x00, 0x07, 0x00, 0xc0,
   0x00, 0x00, 0x00, 0x00, 0x00, 0x07, 0x00, 0xc0, 0x00, 0x00, 0x00, 0x00,
   0x00, 0x07, 0x00, 0xc0, 0x00, 0x00, 0x00, 0x00, 0x00, 0x07, 0x00, 0xc0,
   0x00, 0x00, 0x00, 0x00, 0x00, 0x07, 0x00, 0xc0, 0x00, 0x00, 0x00, 0x00,
   0x00, 0x07, 0x00, 0xc0, 0x00, 0x00, 0x00, 0x00, 0x00, 0x07, 0x00, 0xc0,
   0x00, 0x00, 0x00, 0x00, 0x00, 0x07, 0x00, 0xc0, 0x00, 0xc0, 0xff, 0xff,
   0xff, 0xff, 0x01, 0xc0, 0x00, 0xe0, 0x87, 0xff, 0xdb, 0x4b, 0x03, 0xc0,
   0x00, 0xfe, 0x01, 0x00, 0x76, 0xd1, 0x06, 0xc0, 0x00, 0xff, 0xff, 0xff,
   0x1f, 0xaa, 0x04, 0xc0, 0x80, 0x92, 0x88, 0xfc, 0xff, 0x5f, 0x0a, 0xc0,
   0x80, 0x49, 0x52, 0x4a, 0xa2, 0x92, 0x0c, 0xc0, 0xc0, 0x92, 0x84, 0x90,
   0x14, 0x34, 0x0d, 0xc0, 0xc0, 0x24, 0x29, 0x25, 0xa1, 0x62, 0x0a, 0xc0,
   0x40, 0x92, 0x44, 0x4a, 0x4a, 0xb4, 0x0f, 0xc0, 0xe0, 0xff, 0xff, 0x93,
   0x90, 0xc2, 0x07, 0xc0, 0x40, 0x11, 0x49, 0xfe, 0xff, 0xff, 0x06, 0xc0,
   0x40, 0x4a, 0x92, 0x10, 0x95, 0xd4, 0x07, 0xc0, 0xc0, 0x91, 0x24, 0xa5,
   0x20, 0xe1, 0x02, 0xc0, 0xc0, 0x24, 0x49, 0x44, 0x4a, 0xca, 0x01, 0xc0,
   0x80, 0x49, 0x92, 0x92, 0x94, 0xb0, 0x01, 0xc0, 0x80, 0xff, 0x25, 0x24,
   0x21, 0xe5, 0x00, 0xc0, 0x00, 0x9e, 0xff, 0xff, 0x9f, 0xe8, 0x00, 0xc0,
   0x00, 0xec, 0x00, 0x00, 0xf0, 0x7f, 0x00, 0xc0, 0x00, 0x3c, 0x00, 0x00,
   0x00, 0x6c, 0x00, 0xc0, 0x00, 0x2c, 0x00, 0x00, 0x00, 0x3c, 0x00, 0xc0,
   0x00, 0x0c, 0x00, 0x00, 0x00, 0x1c, 0x00, 0xc0, 0x00, 0x00, 0x00, 0x00,
   0x00, 0x1c, 0x00, 0xc0, 0x00, 0x00, 0x00, 0x00, 0x00, 0x0c, 0x00, 0xc0,
   0x00, 0x00, 0x00, 0x00, 0x00, 0x0c, 0x00, 0xc0, 0x00, 0x00, 0x00, 0x00,
   0x00, 0x00, 0x00, 0xc0, 0x00, 0x00, 0x00, 0x00, 0x00, 0x00, 0x00, 0xc0,
   0x00, 0x00, 0x00, 0x00, 0x00, 0x00, 0x00, 0xc0, 0x00, 0x00, 0x00, 0x00,
   0x00, 0x00, 0x00, 0xc0, 0x00, 0x00, 0x00, 0x00, 0x00, 0x00, 0x00, 0xc0,
   0x00, 0x00, 0x00, 0x00, 0x00, 0x00, 0x00, 0xc0, 0x00, 0x00, 0x00, 0x00,
   0x00, 0x00, 0x00, 0xc0, 0x00, 0x00, 0x00, 0x00, 0x00, 0x00, 0x00, 0xc0};
