#define orig_on_width 16
#define orig_on_height 16
static char orig_on_bits[] = {
   0x80, 0x01, 0x80, 0x01, 0x0c, 0x30, 0xcc, 0x33, 0xe0, 0x07, 0xf0, 0x0f,
   0xf8, 0x1f, 0xfb, 0xdf, 0xfb, 0xdf, 0xf8, 0x1f, 0xf0, 0x0f, 0xe0, 0x07,
   0xcc, 0x33, 0x0c, 0x30, 0x80, 0x01, 0x80, 0x01};
