#define updir_width 32
#define updir_height 16
static char updir_bits[] = {
   0x00, 0x02, 0x00, 0x00, 0x00, 0x07, 0x00, 0x00, 0x00, 0x07, 0x00, 0x00,
   0x80, 0x0f, 0x00, 0x00, 0xc0, 0x1f, 0x00, 0x00, 0xc0, 0x1f, 0x00, 0x00,
   0xe0, 0x3f, 0x00, 0x00, 0x00, 0x07, 0x00, 0x00, 0x00, 0x07, 0x00, 0x00,
   0x00, 0x07, 0x00, 0x00, 0x00, 0x07, 0x00, 0x00, 0x00, 0x07, 0x00, 0x00,
   0x00, 0xff, 0x87, 0x10, 0x00, 0xff, 0xc7, 0x39, 0x00, 0xff, 0x87, 0x10,
   0x00, 0x00, 0x00, 0x00};
