#define adm_width 32
#define adm_height 32
static char adm_bits[] = {
 0x00,0x00,0x00,0x00,0x00,0x00,0x00,0x00,0x00,0x00,0x00,0x00,0x00,0x00,0x00,
 0x00,0x00,0xfc,0x0f,0x00,0x00,0xfc,0x0f,0x00,0x00,0xfc,0x0f,0x00,0x00,0xfc,
 0x0f,0x00,0x00,0xf8,0x0f,0x00,0x00,0xf8,0x07,0x00,0x00,0xf8,0x07,0x00,0x00,
 0xf8,0x07,0x00,0x00,0xf8,0x07,0x00,0x00,0xf0,0x03,0x00,0x00,0xf0,0x03,0x00,
 0x00,0xf0,0x03,0x00,0x00,0xf0,0x03,0x00,0x00,0xf0,0x03,0x00,0x00,0xf0,0x03,
 0x00,0x00,0xf0,0x03,0x00,0x00,0xe0,0x01,0x00,0x00,0xe0,0x01,0x00,0x00,0xe0,
 0x01,0x00,0x00,0xe0,0x01,0x00,0x00,0xe0,0x01,0x00,0x00,0x00,0x00,0x00,0x00,
 0x00,0x00,0x00,0x00,0xe0,0x01,0x00,0x00,0xe0,0x01,0x00,0x00,0xe0,0x01,0x00,
 0x00,0x00,0x00,0x00,0x00,0x00,0x00,0x00};
