#define adm_icono_width 20
#define adm_icono_height 20
static char adm_icono_bits[] = {
 0x00,0x00,0x00,0x00,0x00,0x00,0x00,0x00,0x00,0x80,0x0f,0x00,0x80,0x08,0x00,
 0x80,0x08,0x00,0x80,0x08,0x00,0x00,0x05,0x00,0x00,0x05,0x00,0x00,0x05,0x00,
 0x00,0x05,0x00,0x00,0x05,0x00,0x00,0x02,0x00,0x00,0x02,0x00,0x00,0x02,0x00,
 0x00,0x02,0x00,0x00,0x00,0x00,0x00,0x02,0x00,0x00,0x00,0x00,0x00,0x00,0x00
 };
