/* XPM */
static char *align[] = {
/* width height num_colors chars_per_pixel */
"    20    20        5            1",
/* colors */
". c #cbcbcb",
"# c #000000",
"a c #ffff00",
"b c #00ffff",
"c c #ff00ff",
/* pixels */
"....................",
"....................",
".........###........",
"........#bbb#.......",
"........#bbb#.......",
"..#####.#bbb#.......",
"..#aaa#.#bbb#...#...",
"..#aaa#.#bbb#..#c#..",
"..#aaa#.#bbb#..#c#..",
"..#aaa#.#bbb#.#ccc#.",
".##################.",
"....................",
"....................",
"..#..#..#..##..#..#.",
".#.#.#..#.#....##.#.",
".###.#..#.#.##.#.##.",
".#.#.#..#.#..#.#..#.",
".#.#.#..#.#..#.#..#.",
".#.#.##.#..##..#..#.",
"...................."
};
