#define arc_width 20
#define arc_height 20
static char arc_bits[] = {
 0x00,0x00,0x00,0x00,0x00,0x00,0x00,0x00,0x00,0x00,0x00,0x00,0x06,0x1e,0x00,
 0x06,0x62,0x00,0x00,0x82,0x00,0x00,0x02,0x03,0x00,0x02,0x02,0x00,0x02,0x04,
 0x00,0xfe,0x07,0x00,0x00,0x00,0x00,0x00,0x00,0x00,0x00,0x00,0x00,0x00,0x06,
 0x00,0x00,0x06,0x00,0x00,0x00,0x00,0x00,0x00,0x00,0x00,0x00,0x00,0x00,0x00
 };
