#define flecha1_width 27
#define flecha1_height 27
static unsigned char flecha1_bits[] = {
   0x00, 0x00, 0x00, 0x00, 0x00, 0x00, 0x00, 0x00, 0x00, 0x00, 0x00, 0x00,
   0x00, 0x00, 0x00, 0x00, 0x00, 0x00, 0x00, 0x00, 0x00, 0x00, 0x00, 0x00,
   0x00, 0x40, 0x00, 0x00, 0x00, 0xc0, 0x00, 0x00, 0x00, 0x40, 0x01, 0x00,
   0x00, 0x40, 0x06, 0x00, 0xe0, 0x7f, 0x08, 0x00, 0x20, 0x00, 0x10, 0x00,
   0x20, 0x00, 0x20, 0x00, 0x20, 0x00, 0x40, 0x00, 0x20, 0x00, 0x20, 0x00,
   0x20, 0x00, 0x10, 0x00, 0xe0, 0x7f, 0x08, 0x00, 0x00, 0x40, 0x06, 0x00,
   0x00, 0x40, 0x01, 0x00, 0x00, 0xc0, 0x00, 0x00, 0x00, 0x40, 0x00, 0x00,
   0x00, 0x00, 0x00, 0x00, 0x00, 0x00, 0x00, 0x00, 0x00, 0x00, 0x00, 0x00,
   0x00, 0x00, 0x00, 0x00, 0x00, 0x00, 0x00, 0x00, 0x00, 0x00, 0x00, 0x00};
