/* XPM */
static char *cerrar[] = {
/* width height num_colors chars_per_pixel */
"    27    25        3            1",
/* colors */
". c #000000",
"# c #cbcbcb",
"b c #808000",
/* pixels */
"###########################",
"###########################",
"###########################",
"###...................#####",
"###..b.###########.##.#####",
"###..b.###########.##.#####",
"###..b.###########....#####",
"###..b.###########.bb.#####",
"###..b.###########.bb.#####",
"###..b.###########.bb.#####",
"###..b.###########.bb.#####",
"###..b.###########.bb.#####",
"###..bb...........bbb.#####",
"###..bb...........bbb.#####",
"###..bbbbbbbbbbbbbbbb.#####",
"###..bb............bb.#####",
"###..bb........###.bb.#####",
"###..bb........###.bb.#####",
"###..bb........###.bb.#####",
"###..bb........###.bb.#####",
"#####.................#####",
"#####.................#####",
"###########################",
"###########################",
"###########################"
};

