#define circunf_diam1_width 27
#define circunf_diam1_height 27
static unsigned char circunf_diam1_bits[] = {
   0x00, 0x00, 0x00, 0x00, 0x00, 0x00, 0x00, 0x00, 0x00, 0x00, 0x00, 0x00,
   0x00, 0x00, 0x00, 0x00, 0x00, 0xfc, 0x00, 0x00, 0x00, 0x03, 0x03, 0x00,
   0x80, 0x00, 0x04, 0x00, 0x40, 0x00, 0x08, 0x00, 0x20, 0x00, 0x10, 0x00,
   0x20, 0x00, 0x10, 0x00, 0x10, 0x00, 0x20, 0x00, 0x10, 0x00, 0x20, 0x00,
   0x38, 0x00, 0x70, 0x00, 0xf8, 0xff, 0x7f, 0x00, 0x38, 0x00, 0x70, 0x00,
   0x10, 0x00, 0x20, 0x00, 0x20, 0x00, 0x10, 0x00, 0x20, 0x00, 0x10, 0x00,
   0x40, 0x00, 0x08, 0x00, 0x80, 0x00, 0x04, 0x00, 0x00, 0x03, 0x03, 0x00,
   0x00, 0xfc, 0x00, 0x00, 0x00, 0x00, 0x00, 0x00, 0x00, 0x00, 0x00, 0x00,
   0x00, 0x00, 0x00, 0x00, 0x00, 0x00, 0x00, 0x00, 0x00, 0x00, 0x00, 0x00};
