#define circunf_radio_width 20
#define circunf_radio_height 20
static char circunf_radio_bits[] = {
 0x00,0x00,0x00,0x80,0x0f,0x00,0x60,0x30,0x00,0x10,0x40,0x00,0x08,0x80,0x00,
 0x04,0x00,0x01,0x04,0x00,0x01,0x02,0x00,0x02,0x02,0x03,0x06,0x02,0xff,0x07,
 0x02,0x03,0x06,0x02,0x00,0x02,0x04,0x00,0x01,0x04,0x00,0x01,0x08,0x80,0x00,
 0x10,0x40,0x00,0x60,0x30,0x00,0x80,0x0f,0x00,0x00,0x00,0x00,0x00,0x00,0x00
 };
