#define conf_flecha_width 80
#define conf_flecha_height 80
static char conf_flecha_bits[] = {
 0x00,0x00,0x00,0x00,0x00,0x00,0x00,0x00,0x00,0x00,0x00,0x00,0x00,0x00,0x00,
 0x00,0x00,0x00,0x00,0x00,0x00,0x00,0x00,0x00,0x00,0x00,0x00,0x00,0x00,0x00,
 0x00,0x00,0x00,0x00,0x90,0x03,0x00,0x00,0x00,0x00,0x00,0x00,0x00,0x00,0x10,
 0x02,0x00,0x00,0x00,0x00,0x00,0x00,0x00,0x00,0x10,0x02,0x00,0x00,0x00,0x00,
 0x00,0x00,0x00,0x00,0x9c,0x03,0x00,0x00,0x00,0x00,0x00,0x00,0x00,0x00,0x92,
 0x00,0x00,0x00,0x00,0x00,0x00,0x00,0x00,0x00,0x92,0x00,0x00,0x00,0x00,0x00,
 0x00,0x00,0x00,0x00,0x9c,0x03,0x00,0x00,0x00,0x00,0x00,0x04,0x00,0x00,0x00,
 0x00,0x00,0x20,0x00,0x00,0x00,0xfc,0xff,0xff,0xff,0xff,0xff,0x3f,0x00,0x00,
 0x00,0x04,0x00,0x00,0x00,0x00,0x00,0x20,0x00,0x00,0x00,0x00,0x00,0x00,0x00,
 0x00,0x00,0x00,0x00,0x00,0x00,0x04,0x00,0x00,0x00,0x00,0x00,0x00,0x1c,0x00,
 0x00,0x1c,0x00,0x00,0x00,0x00,0x00,0x00,0x08,0x00,0x00,0x78,0x00,0x00,0x00,
 0x00,0x00,0x00,0x08,0x00,0x00,0xf8,0x01,0x00,0x00,0x00,0x00,0x00,0x08,0x00,
 0x00,0xf0,0x03,0x00,0x00,0x00,0x00,0x00,0x08,0x00,0x00,0xf0,0x0f,0x00,0x00,
 0x00,0x00,0x00,0x08,0x00,0x00,0xe0,0x3f,0x00,0x00,0x00,0x00,0x00,0x08,0x00,
 0x00,0xe0,0xff,0x00,0x00,0x00,0x00,0x00,0x08,0x00,0x00,0xc0,0xff,0x01,0x00,
 0x00,0x00,0x00,0x08,0x00,0x00,0xc0,0xff,0x07,0x00,0x00,0x00,0x00,0x08,0x00,
 0x00,0x80,0xff,0x1f,0x00,0x00,0x00,0x00,0x08,0x00,0x00,0x80,0xff,0x7f,0x00,
 0x00,0x00,0x00,0x08,0x00,0x00,0x00,0xff,0xff,0x00,0x00,0x00,0x00,0x08,0x00,
 0x00,0x00,0xff,0xff,0x03,0x00,0x00,0x00,0x08,0x00,0x00,0x00,0xfe,0xff,0x0f,
 0x00,0x00,0x00,0x08,0x00,0x00,0x00,0xfe,0xff,0x3f,0x00,0x00,0x00,0x08,0x00,
 0x00,0x00,0xfc,0xff,0xff,0x00,0x00,0x00,0x08,0x00,0x00,0x00,0xfc,0xff,0xff,
 0x01,0x00,0x00,0x08,0x00,0x00,0x00,0xf8,0xff,0xff,0x07,0x00,0x00,0x08,0x00,
 0x00,0x00,0xf8,0xff,0xff,0x1f,0x00,0x00,0x08,0x00,0x00,0x00,0xf0,0xff,0xff,
 0x7f,0x00,0x00,0x08,0x00,0x00,0x00,0xf0,0xff,0xff,0xff,0x00,0x00,0x08,0x00,
 0x00,0x00,0xe0,0xff,0xff,0xff,0x03,0x00,0x08,0x00,0x00,0x00,0xe0,0xff,0xff,
 0xff,0x0f,0x00,0x08,0x00,0x00,0x00,0xc0,0xff,0xff,0xff,0x3f,0x00,0x08,0x00,
 0x00,0x00,0xc0,0xff,0xff,0xff,0x7f,0x00,0x08,0x1d,0x00,0x00,0x80,0xff,0xff,
 0xff,0xff,0x01,0x08,0x11,0x00,0x00,0x80,0xff,0xff,0xff,0xff,0x07,0x08,0x11,
 0x00,0x00,0x00,0xff,0xff,0xff,0xff,0x1f,0xc8,0x1d,0xf0,0xff,0xff,0xff,0xff,
 0xff,0xff,0x3f,0x28,0x11,0xf0,0xff,0xff,0xff,0xff,0xff,0xff,0x3f,0x28,0x11,
 0x00,0x00,0x00,0xff,0xff,0xff,0xff,0x1f,0xc8,0x1d,0x00,0x00,0x80,0xff,0xff,
 0xff,0xff,0x07,0x08,0x00,0x00,0x00,0x80,0xff,0xff,0xff,0xff,0x01,0x08,0x00,
 0x00,0x00,0xc0,0xff,0xff,0xff,0x7f,0x00,0x08,0x00,0x00,0x00,0xc0,0xff,0xff,
 0xff,0x3f,0x00,0x08,0x00,0x00,0x00,0xe0,0xff,0xff,0xff,0x0f,0x00,0x08,0x00,
 0x00,0x00,0xe0,0xff,0xff,0xff,0x03,0x00,0x08,0x00,0x00,0x00,0xf0,0xff,0xff,
 0xff,0x00,0x00,0x08,0x00,0x00,0x00,0xf0,0xff,0xff,0x7f,0x00,0x00,0x08,0x00,
 0x00,0x00,0xf8,0xff,0xff,0x1f,0x00,0x00,0x08,0x00,0x00,0x00,0xf8,0xff,0xff,
 0x07,0x00,0x00,0x08,0x00,0x00,0x00,0xfc,0xff,0xff,0x01,0x00,0x00,0x08,0x00,
 0x00,0x00,0xfc,0xff,0xff,0x00,0x00,0x00,0x08,0x00,0x00,0x00,0xfe,0xff,0x3f,
 0x00,0x00,0x00,0x08,0x00,0x00,0x00,0xfe,0xff,0x0f,0x00,0x00,0x00,0x08,0x00,
 0x00,0x00,0xff,0xff,0x03,0x00,0x00,0x00,0x08,0x00,0x00,0x00,0xff,0xff,0x00,
 0x88,0x00,0x00,0x08,0x00,0x00,0x80,0xff,0x7f,0x00,0xc8,0x00,0x00,0x08,0x00,
 0x00,0x80,0xff,0x1f,0x00,0xe8,0x00,0x00,0x08,0x00,0x00,0xc0,0xff,0x07,0x00,
 0x8e,0x00,0x00,0x08,0x00,0x00,0xc0,0xff,0x01,0x00,0x89,0x00,0x00,0x08,0x00,
 0x00,0xe0,0xff,0x00,0x00,0x89,0x00,0x00,0x08,0x00,0x00,0xe0,0x3f,0x00,0x00,
 0x8e,0x00,0x00,0x08,0x00,0x00,0xf0,0x0f,0x01,0x00,0x00,0x00,0x20,0x08,0x00,
 0x00,0xf0,0x03,0xff,0xff,0xff,0xff,0x3f,0x08,0x00,0x00,0xf8,0x01,0x01,0x00,
 0x00,0x00,0x20,0x08,0x00,0x00,0x78,0x00,0x00,0x00,0x00,0x00,0x00,0x08,0x00,
 0x00,0x1c,0x00,0x00,0x00,0x00,0x00,0x00,0x08,0x00,0x00,0x04,0x00,0x00,0x00,
 0x00,0x00,0x00,0x08,0x00,0x00,0x00,0x00,0x00,0x00,0x00,0x00,0x00,0x1c,0x00,
 0x00,0x00,0x00,0x00,0x00,0x00,0x00,0x00,0x00,0x00,0x00,0x00,0x00,0x00,0x00,
 0x00,0x00,0x00,0x00,0x00,0x00,0x00,0x00,0x00,0x00,0x00,0x00,0x00,0x00,0x00,
 0x00,0x00,0x00,0x00,0x00,0x00,0x00,0x00,0x00,0x00,0x00,0x00,0x00,0x00,0x00,
 0x00,0x00,0x00,0x00,0x00};
