#define curva_abierta_width 20
#define curva_abierta_height 20
static char curva_abierta_bits[] = {
 0x00,0x00,0x00,0x00,0x00,0x00,0xc0,0x7f,0x00,0x30,0x00,0x00,0x08,0x00,0x00,
 0x08,0x00,0x00,0x08,0x00,0x00,0x30,0x00,0x00,0xc0,0x00,0x00,0x00,0x03,0x00,
 0x00,0x06,0x00,0x00,0x18,0x00,0x00,0x60,0x00,0x00,0x80,0x00,0x00,0x80,0x00,
 0x00,0x80,0x00,0x00,0x60,0x00,0xf0,0x1f,0x00,0x00,0x00,0x00,0x00,0x00,0x00
 };
