#define curva_cerrada1_width 27
#define curva_cerrada1_height 27
static unsigned char curva_cerrada1_bits[] = {
   0x00, 0x00, 0x00, 0x00, 0x00, 0x00, 0x00, 0x00, 0x00, 0x00, 0x00, 0x00,
   0x00, 0x00, 0x00, 0x00, 0x00, 0x00, 0x00, 0x00, 0x00, 0xff, 0x07, 0x00,
   0x80, 0x00, 0x08, 0x00, 0x40, 0x00, 0x10, 0x00, 0x40, 0x00, 0x10, 0x00,
   0x80, 0x00, 0x08, 0x00, 0x00, 0x01, 0x04, 0x00, 0x00, 0x02, 0x02, 0x00,
   0x00, 0x02, 0x02, 0x00, 0x00, 0x02, 0x02, 0x00, 0x00, 0x02, 0x02, 0x00,
   0x00, 0x02, 0x02, 0x00, 0x00, 0x01, 0x04, 0x00, 0x80, 0x00, 0x08, 0x00,
   0x40, 0x00, 0x10, 0x00, 0x40, 0x00, 0x10, 0x00, 0x80, 0x00, 0x08, 0x00,
   0x00, 0xff, 0x07, 0x00, 0x00, 0x00, 0x00, 0x00, 0x00, 0x00, 0x00, 0x00,
   0x00, 0x00, 0x00, 0x00, 0x00, 0x00, 0x00, 0x00, 0x00, 0x00, 0x00, 0x00};
