#define curva_cerrada_width 20
#define curva_cerrada_height 20
static char curva_cerrada_bits[] = {
 0x00,0x00,0x00,0x00,0x00,0x00,0x00,0x00,0x00,0xc0,0x3f,0x00,0x20,0x40,0x00,
 0x10,0x80,0x00,0x10,0x80,0x00,0x20,0x40,0x00,0x40,0x20,0x00,0x80,0x10,0x00,
 0x80,0x10,0x00,0x40,0x20,0x00,0x20,0x40,0x00,0x10,0x80,0x00,0x10,0x80,0x00,
 0x20,0x40,0x00,0xc0,0x3f,0x00,0x00,0x00,0x00,0x00,0x00,0x00,0x00,0x00,0x00
 };
