#define flecha_sel_width 20
#define flecha_sel_height 20
static unsigned char flecha_sel_bits[] = {
   0x00, 0x00, 0x00, 0x00, 0x00, 0x00, 0x00, 0x00, 0x00, 0x00, 0x00, 0x01,
   0x00, 0xe0, 0x00, 0x00, 0xf8, 0x00, 0x00, 0xe4, 0x00, 0x00, 0x50, 0x00,
   0x00, 0x48, 0x00, 0x00, 0x24, 0x00, 0x00, 0x02, 0x00, 0x00, 0x01, 0x00,
   0x80, 0x00, 0x00, 0x40, 0x00, 0x00, 0x20, 0x00, 0x00, 0x10, 0x00, 0x00,
   0x00, 0x00, 0x00, 0x00, 0x00, 0x00, 0x00, 0x00, 0x00, 0x00, 0x00, 0x00};
