#define flecha_width 20
#define flecha_height 20
static char flecha_bits[] = {
 0x00,0x00,0x00,0x00,0x00,0x00,0x00,0x00,0x00,0x00,0x04,0x00,0x00,0x0c,0x00,
 0x00,0x14,0x00,0x00,0x64,0x00,0xf8,0x87,0x00,0x08,0x00,0x01,0x08,0x00,0x02,
 0x08,0x00,0x01,0xf8,0x87,0x00,0x00,0x64,0x00,0x00,0x14,0x00,0x00,0x0c,0x00,
 0x00,0x04,0x00,0x00,0x00,0x00,0x00,0x00,0x00,0x00,0x00,0x00,0x00,0x00,0x00
 };
