#define flecha_sel1_width 27
#define flecha_sel1_height 25
static unsigned char flecha_sel1_bits[] = {
   0x00, 0x00, 0x00, 0x00, 0x00, 0x00, 0x00, 0x00, 0x00, 0x00, 0x00, 0x00,
   0x30, 0x00, 0x00, 0x00, 0xf0, 0x01, 0x00, 0x00, 0xe0, 0x07, 0x00, 0x00,
   0xe0, 0x0f, 0x00, 0x00, 0xe0, 0x09, 0x00, 0x00, 0xc0, 0x02, 0x00, 0x00,
   0xc0, 0x04, 0x00, 0x00, 0x80, 0x09, 0x00, 0x00, 0x00, 0x11, 0x00, 0x00,
   0x00, 0x20, 0x00, 0x00, 0x00, 0x40, 0x00, 0x00, 0x00, 0x80, 0x00, 0x00,
   0x00, 0x00, 0x01, 0x00, 0x00, 0x00, 0x02, 0x00, 0x00, 0x00, 0x04, 0x00,
   0x00, 0x00, 0x08, 0x00, 0x00, 0x00, 0x10, 0x00, 0x00, 0x00, 0x20, 0x00,
   0x00, 0x00, 0x40, 0x00, 0x00, 0x00, 0x00, 0x00, 0x00, 0x00, 0x00, 0x00,
   0x00, 0x00, 0x00, 0x00};
