#define flecha_d_r_width 60
#define flecha_d_r_height 20
static char flecha_d_r_bits[] = {
 0x00,0x00,0x00,0x00,0x00,0x00,0x00,0x00,0x00,0x00,0x00,0x00,0x00,0x00,0x00,
 0x00,0x00,0x00,0x00,0x00,0x00,0x00,0x00,0x00,0x00,0x00,0x00,0x00,0x00,0x00,
 0x00,0x00,0x00,0x00,0x00,0x00,0x00,0x20,0x00,0x00,0x00,0x00,0x00,0x00,0x00,
 0xe0,0x00,0x00,0x00,0x00,0x00,0x00,0x00,0xe0,0x03,0x00,0x00,0x00,0x00,0x00,
 0x00,0xe0,0x0f,0x00,0x00,0x00,0x00,0x00,0x00,0xe0,0x3f,0x00,0xe0,0xff,0xff,
 0xff,0xff,0xff,0x7f,0x00,0x00,0x00,0x00,0x00,0x00,0xe0,0x3f,0x00,0x00,0x00,
 0x00,0x00,0x00,0xe0,0x0f,0x00,0x00,0x00,0x00,0x00,0x00,0xe0,0x03,0x00,0x00,
 0x00,0x00,0x00,0x00,0xe0,0x00,0x00,0x00,0x00,0x00,0x00,0x00,0x20,0x00,0x00,
 0x00,0x00,0x00,0x00,0x00,0x00,0x00,0x00,0x00,0x00,0x00,0x00,0x00,0x00,0x00,
 0x00,0x00,0x00,0x00,0x00,0x00,0x00,0x00,0x00,0x00,0x00,0x00,0x00,0x00,0x00,
 0x00,0x00,0x00,0x00,0x00,0x00,0x00,0x00,0x00,0x00};
