/* XPM */
static char *flecha_sel[] = {
/* width height num_colors chars_per_pixel */
"    20    20        2            1",
/* colors */
". c #ffffff",
"# c #000000",
/* pixels */
"....................",
"....................",
"....................",
"....................",
".##......####.......",
".##......#...##.....",
".........#.....#....",
".........#......##..",
".........#.......#..",
".........#........#.",
".........##########.",
"....................",
"....................",
"....................",
".................##.",
".................##.",
"....................",
"....................",
"....................",
"...................."
};
