#define g8_width 30
#define g8_height 11
static unsigned char g8_bits[] = {
   0x00, 0x00, 0x00, 0x00, 0x00, 0x00, 0x00, 0x00, 0xf8, 0xff, 0xff, 0x07,
   0xf8, 0xff, 0xff, 0x07, 0xf8, 0xff, 0xff, 0x07, 0xf8, 0xff, 0xff, 0x07,
   0xf8, 0xff, 0xff, 0x07, 0xf8, 0xff, 0xff, 0x07, 0xf8, 0xff, 0xff, 0x07,
   0x00, 0x00, 0x00, 0x00, 0x00, 0x00, 0x00, 0x00};
