#define hand_width 16
#define hand_height 16
static char hand_bits[] = {
 0x00,0x70,0x00,0x78,0x00,0x1e,0x00,0x0f,0xc0,0x07,0xe0,0x03,0xf0,0x01,0xf0,
 0x03,0xf8,0x05,0xfc,0x0f,0xff,0x07,0xf9,0x0f,0xf1,0x07,0xab,0x01,0x26,0x00,
 0x1c,0x00};
