#define justif_centro_width 20
#define justif_centro_height 20
static char justif_centro_bits[] = {
 0x00,0x00,0x00,0x00,0x00,0x00,0xf0,0xff,0x00,0x00,0x00,0x00,0x00,0x00,0x00,
 0xf0,0xff,0x00,0x00,0x00,0x00,0x00,0x00,0x00,0xf0,0xff,0x00,0x00,0x00,0x00,
 0x00,0x00,0x00,0xf0,0xff,0x00,0x00,0x00,0x00,0x00,0x00,0x00,0xf0,0xff,0x00,
 0x00,0x00,0x00,0x00,0x00,0x00,0xf0,0xff,0x00,0x00,0x00,0x00,0x00,0x00,0x00
 };
