#define justif_dcha_width 20
#define justif_dcha_height 20
static char justif_dcha_bits[] = {
 0x00,0x00,0x00,0x00,0x00,0x00,0x00,0xfc,0x00,0x00,0x00,0x00,0x00,0x00,0x00,
 0xc0,0xff,0x00,0x00,0x00,0x00,0x00,0x00,0x00,0x80,0xff,0x00,0x00,0x00,0x00,
 0x00,0x00,0x00,0xe0,0xff,0x00,0x00,0x00,0x00,0x00,0x00,0x00,0x80,0xff,0x00,
 0x00,0x00,0x00,0x00,0x00,0x00,0xf0,0xff,0x00,0x00,0x00,0x00,0x00,0x00,0x00
 };
