#define justif_izq_width 20
#define justif_izq_height 20
static char justif_izq_bits[] = {
 0x00,0x00,0x00,0x00,0x00,0x00,0xf0,0x03,0x00,0x00,0x00,0x00,0x00,0x00,0x00,
 0xf0,0x3f,0x00,0x00,0x00,0x00,0x00,0x00,0x00,0xf0,0x1f,0x00,0x00,0x00,0x00,
 0x00,0x00,0x00,0xf0,0x7f,0x00,0x00,0x00,0x00,0x00,0x00,0x00,0xf0,0x1f,0x00,
 0x00,0x00,0x00,0x00,0x00,0x00,0xf0,0xff,0x00,0x00,0x00,0x00,0x00,0x00,0x00
 };
