#define l2_width 30
#define l2_height 11
static char l2_bits[] = {
 0x00,0x00,0x00,0x00,0x00,0x00,0x00,0x00,0x00,0x00,0x40,0x00,0x00,0x00,0xc0,
 0x00,0x00,0x00,0xc0,0x03,0xf8,0xff,0xff,0x07,0x00,0x00,0xc0,0x03,0x00,0x00,
 0xc0,0x00,0x00,0x00,0x40,0x00,0x00,0x00,0x00,0x00,0x00,0x00,0x00,0x00};
