#define l4_width 30
#define l4_height 11
static char l4_bits[] = {
 0x00,0x00,0x00,0x00,0x00,0x00,0x00,0x00,0x80,0x00,0x40,0x00,0xc0,0x00,0xc0,
 0x00,0xf0,0x00,0xc0,0x03,0xf8,0xff,0xff,0x07,0xf0,0x00,0xc0,0x03,0xc0,0x00,
 0xc0,0x00,0x80,0x00,0x40,0x00,0x00,0x00,0x00,0x00,0x00,0x00,0x00,0x00};
