#define l6_width 30
#define l6_height 11
static unsigned char l6_bits[] = {
   0x00, 0x00, 0x00, 0x00, 0x00, 0x00, 0x00, 0x00, 0x00, 0x00, 0x40, 0x00,
   0x00, 0x00, 0xc0, 0x00, 0x00, 0x00, 0xc0, 0x03, 0xf8, 0xe0, 0xc3, 0x07,
   0x00, 0x00, 0xc0, 0x03, 0x00, 0x00, 0xc0, 0x00, 0x00, 0x00, 0x40, 0x00,
   0x00, 0x00, 0x00, 0x00, 0x00, 0x00, 0x00, 0x00};
