#define l7_width 30
#define l7_height 11
static unsigned char l7_bits[] = {
   0x00, 0x00, 0x00, 0x00, 0x00, 0x00, 0x00, 0x00, 0x80, 0x00, 0x00, 0x00,
   0xc0, 0x00, 0x00, 0x00, 0xf0, 0x00, 0x00, 0x00, 0xf8, 0xf0, 0xc1, 0x07,
   0xf0, 0x00, 0x00, 0x00, 0xc0, 0x00, 0x00, 0x00, 0x80, 0x00, 0x00, 0x00,
   0x00, 0x00, 0x00, 0x00, 0x00, 0x00, 0x00, 0x00};
