#define l8_width 30
#define l8_height 11
static unsigned char l8_bits[] = {
   0x00, 0x00, 0x00, 0x00, 0x00, 0x00, 0x00, 0x00, 0x80, 0x00, 0x40, 0x00,
   0xc0, 0x00, 0xc0, 0x00, 0xf0, 0x00, 0xc0, 0x03, 0xf8, 0x1f, 0xfe, 0x07,
   0xf0, 0x00, 0xc0, 0x03, 0xc0, 0x00, 0xc0, 0x00, 0x80, 0x00, 0x40, 0x00,
   0x00, 0x00, 0x00, 0x00, 0x00, 0x00, 0x00, 0x00};
