#define linea_cerrada_width 20
#define linea_cerrada_height 20
static unsigned char linea_cerrada_bits[] = {
   0x00, 0x00, 0x00, 0x00, 0x08, 0x00, 0x00, 0x0c, 0x00, 0x00, 0x06, 0x00,
   0x00, 0x05, 0x00, 0xc0, 0x02, 0x00, 0x20, 0x02, 0x00, 0x10, 0x01, 0x00,
   0x08, 0x01, 0x00, 0x04, 0x02, 0x00, 0x18, 0x04, 0x00, 0x60, 0x08, 0x00,
   0x80, 0x31, 0x00, 0x80, 0x40, 0x00, 0x40, 0x80, 0x00, 0x20, 0xe0, 0x01,
   0x90, 0x1f, 0x00, 0x78, 0x00, 0x00, 0x00, 0x00, 0x00, 0x00, 0x00, 0x00};
