#define linea_cerrada1_width 27
#define linea_cerrada1_height 27
static unsigned char linea_cerrada1_bits[] = {
   0x00, 0x00, 0x00, 0x00, 0x00, 0x00, 0x00, 0x00, 0x00, 0x00, 0x00, 0x00,
   0x00, 0x80, 0x00, 0x00, 0x00, 0x80, 0x00, 0x00, 0x00, 0xc0, 0x00, 0x00,
   0x00, 0x60, 0x00, 0x00, 0x00, 0x50, 0x00, 0x00, 0x00, 0x2c, 0x00, 0x00,
   0x00, 0x22, 0x00, 0x00, 0x00, 0x11, 0x00, 0x00, 0x80, 0x10, 0x00, 0x00,
   0x40, 0x20, 0x00, 0x00, 0x80, 0x41, 0x00, 0x00, 0x00, 0x86, 0x00, 0x00,
   0x00, 0x08, 0x01, 0x00, 0x00, 0x10, 0x02, 0x00, 0x00, 0x08, 0x04, 0x00,
   0x00, 0x04, 0x08, 0x00, 0x00, 0x02, 0x3e, 0x00, 0x00, 0xf9, 0x01, 0x00,
   0x80, 0x07, 0x00, 0x00, 0x40, 0x00, 0x00, 0x00, 0x00, 0x00, 0x00, 0x00,
   0x00, 0x00, 0x00, 0x00, 0x00, 0x00, 0x00, 0x00, 0x00, 0x00, 0x00, 0x00};
