#define linea_abierta_width 20
#define linea_abierta_height 20
static char linea_abierta_bits[] = {
 0x00,0x00,0x00,0x00,0x00,0x00,0x00,0x00,0x00,0x00,0xc0,0x01,0x00,0x3c,0x00,
 0xe0,0x03,0x00,0x1c,0x00,0x00,0xe0,0x03,0x00,0x00,0x3c,0x00,0x00,0xc0,0x01,
 0x00,0xc0,0x01,0x00,0x3c,0x00,0xe0,0x03,0x00,0x1c,0x00,0x00,0xe0,0x01,0x00,
 0x00,0x3e,0x00,0x00,0xc0,0x01,0x00,0x00,0x00,0x00,0x00,0x00,0x00,0x00,0x00
 };
