#define menu_but_width 11
#define menu_but_height 11
static char menu_but_bits[] = {
 0x00,0x00,0x00,0x00,0xfc,0x01,0xfc,0x01,0xf8,0x00,0xf8,0x00,0x70,0x00,0x70,
 0x00,0x20,0x00,0x00,0x00,0x00,0x00};
