#define menu_but1_width 11
#define menu_but1_height 27
static char menu_but1_bits[] = {
 0x00,0x00,0x00,0x00,0x00,0x00,0x00,0x00,0x00,0x00,0x00,0x00,0x00,0x00,0x00,
 0x00,0x00,0x00,0xfc,0x01,0xfc,0x01,0xfc,0x01,0xfc,0x01,0xfc,0x01,0xf8,0x00,
 0xf8,0x00,0xf8,0x00,0x70,0x00,0x70,0x00,0x20,0x00,0x20,0x00,0x00,0x00,0x00,
 0x00,0x00,0x00,0x00,0x00,0x00,0x00,0x00,0x00};
