/* XPM */
static char *nuevo[] = {
/* width height num_colors chars_per_pixel */
"    27    25        3            1",
/* colors */
". c #000000",
"# c #ffffff",
"a c #cbcbcb",
/* pixels */
"aaaaaaaaaaaaaaaaaaaaaaaaaaa",
"aaaaaaaaaaaaaaaaaaaaaaaaaaa",
"aaaa............aaaaaaaaaaa",
"aaaa.##########.aaaaaaaaaaa",
"aaaa.##########.aaaaaaaaaaa",
"aaaa.##########....aaaaaaaa",
"aaaa.##########.##.aaaaaaaa",
"aaaa.##########......aaaaaa",
"aaaa.###############.aaaaaa",
"aaaa.###############.aaaaaa",
"aaaa.###############.aaaaaa",
"aaaa.###############.aaaaaa",
"aaaa.###############.aaaaaa",
"aaaa.###############.aaaaaa",
"aaaa.###############.aaaaaa",
"aaaa.###############.aaaaaa",
"aaaa.###############.aaaaaa",
"aaaa.###############.aaaaaa",
"aaaa.###############.aaaaaa",
"aaaa.###############.aaaaaa",
"aaaa.###############.aaaaaa",
"aaaa.###############.aaaaaa",
"aaaa.................aaaaaa",
"aaaaaaaaaaaaaaaaaaaaaaaaaaa",
"aaaaaaaaaaaaaaaaaaaaaaaaaaa"
};
SIMPLE  =                    T                                                  BITPIX  =                    8                                                  NAXIS   =                    2                                                  NAXIS1  =                   27                                                  NAXIS2  =                   25                                                  HISTORY Written by XV 3.10a                                                     END                                                                                                                                                                                                                                                                                                                                                                                                                                                                                                                                                                                                                                                                                                                                                                                                                                                                                                                                                                                                                                                                                                                                                                                                                                                                                                                                                                                                                                                                                                                                                                                                                                                                                                                                                                                                                                                                                                                                                                                                                                                                                                                                                                                                                                                                                                                                                                                                                                                                                             ¾¾¾¾¾¾¾¾¾¾¾¾¾¾¾¾¾¾¾¾¾¾¾¾¾¾¾¾¾¾¾¾¾¾¾¾¾¾¾¾¾¾¾¾¾¾¾¾¾¾¾¾¾¾¾¾¾¾¾¾¾¾¾¾¾¾¾¾ÿÿÿÿÿÿÿÿÿÿÿÿÿÿÿ¾¾¾¾¾¾¾¾¾¾ÿÿÿÿÿÿÿÿÿÿÿÿÿÿÿ¾¾¾¾¾¾¾¾¾¾ÿÿÿÿÿÿÿÿÿÿÿÿÿÿÿ¾¾¾¾¾¾¾¾¾¾ÿÿÿÿÿÿÿÿÿÿÿÿÿÿÿ¾¾¾¾¾¾¾¾¾¾ÿÿÿÿÿÿÿÿÿÿÿÿÿÿÿ¾¾¾¾¾¾¾¾¾¾ÿÿÿÿÿÿÿÿÿÿÿÿÿÿÿ¾¾¾¾¾¾¾¾¾¾ÿÿÿÿÿÿÿÿÿÿÿÿÿÿÿ¾¾¾¾¾¾¾¾¾¾ÿÿÿÿÿÿÿÿÿÿÿÿÿÿÿ¾¾¾¾¾¾¾¾¾¾ÿÿÿÿÿÿÿÿÿÿÿÿÿÿÿ¾¾¾¾¾¾¾¾¾¾ÿÿÿÿÿÿÿÿÿÿÿÿÿÿÿ¾¾¾¾¾¾¾¾¾¾ÿÿÿÿÿÿÿÿÿÿÿÿÿÿÿ¾¾¾¾¾¾¾¾¾¾ÿÿÿÿÿÿÿÿÿÿÿÿÿÿÿ¾¾¾¾¾¾¾¾¾¾ÿÿÿÿÿÿÿÿÿÿÿÿÿÿÿ¾¾¾¾¾¾¾¾¾¾ÿÿÿÿÿÿÿÿÿÿÿÿÿÿÿ¾¾¾¾¾¾¾¾¾¾ÿÿÿÿÿÿÿÿÿÿ¾¾¾¾¾¾¾¾¾¾ÿÿÿÿÿÿÿÿÿÿÿÿ¾¾¾¾¾¾¾¾¾¾¾¾ÿÿÿÿÿÿÿÿÿÿ¾¾¾¾¾¾¾¾¾¾¾¾ÿÿÿÿÿÿÿÿÿÿ¾¾¾¾¾¾¾¾¾¾¾¾¾¾¾ÿÿÿÿÿÿÿÿÿÿ¾¾¾¾¾¾¾¾¾¾¾¾¾¾¾¾¾¾¾¾¾¾¾¾¾¾¾¾¾¾¾¾¾¾¾¾¾¾¾¾¾¾¾¾¾¾¾¾¾¾¾¾¾¾¾¾¾¾¾¾¾¾¾¾¾¾¾¾¾¾¾¾¾¾¾¾¾¾¾¾
