#define oval_width 20
#define oval_height 20
static char oval_bits[] = {
 0x00,0x00,0x00,0x00,0x00,0x00,0x00,0x00,0x00,0x00,0x00,0x00,0x86,0x1f,0x00,
 0x66,0x60,0x00,0x10,0x80,0x00,0x0c,0x00,0x03,0x04,0x00,0x02,0x02,0x00,0x04,
 0x02,0x00,0x04,0x04,0x00,0x02,0x0c,0x00,0x03,0x10,0x80,0x00,0x60,0x60,0x06,
 0x80,0x1f,0x06,0x00,0x00,0x00,0x00,0x00,0x00,0x00,0x00,0x00,0x00,0x00,0x00
 };
