#define oval1_width 27
#define oval1_height 27
static unsigned char oval1_bits[] = {
   0x00, 0x00, 0x00, 0x00, 0x00, 0x00, 0x00, 0x00, 0x00, 0x00, 0x00, 0x00,
   0x00, 0x00, 0x00, 0x00, 0x00, 0x00, 0x00, 0x00, 0x00, 0x00, 0x00, 0x00,
   0x0c, 0xfe, 0x03, 0x00, 0x8c, 0x01, 0x0c, 0x00, 0x40, 0x00, 0x10, 0x00,
   0x30, 0x00, 0x60, 0x00, 0x10, 0x00, 0x40, 0x00, 0x08, 0x00, 0x80, 0x00,
   0x04, 0x00, 0x00, 0x01, 0x04, 0x00, 0x00, 0x01, 0x04, 0x00, 0x00, 0x01,
   0x04, 0x00, 0x00, 0x01, 0x08, 0x00, 0x80, 0x00, 0x10, 0x00, 0x40, 0x00,
   0x30, 0x00, 0x60, 0x00, 0x40, 0x00, 0x10, 0x00, 0x80, 0x01, 0x8c, 0x01,
   0x00, 0xfe, 0x83, 0x01, 0x00, 0x00, 0x00, 0x00, 0x00, 0x00, 0x00, 0x00,
   0x00, 0x00, 0x00, 0x00, 0x00, 0x00, 0x00, 0x00, 0x00, 0x00, 0x00, 0x00};
