#define pattern14_width 16
#define pattern14_height 16
static char pattern14_bits[] = {
 0xee,0xee,0xee,0xee,0xee,0xee,0x00,0x00,0xee,0xee,0xee,0xee,0xee,0xee,0x00,
 0x00,0xee,0xee,0xee,0xee,0xee,0xee,0x00,0x00,0xee,0xee,0xee,0xee,0xee,0xee,
 0x00,0x00};
