#define pattern4_width 16
#define pattern4_height 16
static char pattern4_bits[] = {
 0x55,0x55,0x00,0x00,0x55,0x55,0x00,0x00,0x55,0x55,0x00,0x00,0x55,0x55,0x00,
 0x00,0x55,0x55,0x00,0x00,0x55,0x55,0x00,0x00,0x55,0x55,0x00,0x00,0x55,0x55,
 0x00,0x00};
