#define patter11_width 16
#define patter11_height 16
static char patter11_bits[] = {
 0xbb,0xbb,0xdd,0xdd,0xee,0xee,0x77,0x77,0xbb,0xbb,0xdd,0xdd,0xee,0xee,0x77,
 0x77,0xbb,0xbb,0xdd,0xdd,0xee,0xee,0x77,0x77,0xbb,0xbb,0xdd,0xdd,0xee,0xee,
 0x77,0x77};
