#define pattern13_width 16
#define pattern13_height 16
static char pattern13_bits[] = {
 0x11,0x11,0x11,0x11,0x11,0x11,0xff,0xff,0x11,0x11,0x11,0x11,0x11,0x11,0xff,
 0xff,0x11,0x11,0x11,0x11,0x11,0x11,0xff,0xff,0x11,0x11,0x11,0x11,0x11,0x11,
 0xff,0xff};
