#define pattern16_width 16
#define pattern16_height 16
static char pattern16_bits[] = {
 0xbb,0xbb,0x55,0x55,0x00,0x00,0xff,0xff,0x00,0x00,0x55,0x55,0xbb,0xbb,0xff,
 0xff,0xbb,0xbb,0x55,0x55,0x00,0x00,0xff,0xff,0x00,0x00,0x55,0x55,0xbb,0xbb,
 0xff,0xff};
