#define pattern15_width 16
#define pattern15_height 16
static char pattern15_bits[] = {
 0x44,0x44,0xaa,0xaa,0xff,0xff,0x00,0x00,0xff,0xff,0xaa,0xaa,0x44,0x44,0x00,
 0x00,0x44,0x44,0xaa,0xaa,0xff,0xff,0x00,0x00,0xff,0xff,0xaa,0xaa,0x44,0x44,
 0x00,0x00};
