#define pattern8_width 16
#define pattern8_height 16
static char pattern8_bits[] = {
 0x55,0x55,0xee,0xee,0x55,0x55,0xee,0xee,0x55,0x55,0xee,0xee,0x55,0x55,0xee,
 0xee,0x55,0x55,0xee,0xee,0x55,0x55,0xee,0xee,0x55,0x55,0xee,0xee,0x55,0x55,
 0xee,0xee};
