#define pattern9_width 16
#define pattern9_height 16
static char pattern9_bits[] = {
 0xaa,0xaa,0xff,0xff,0xaa,0xaa,0xff,0xff,0xaa,0xaa,0xff,0xff,0xaa,0xaa,0xff,
 0xff,0xaa,0xaa,0xff,0xff,0xaa,0xaa,0xff,0xff,0xaa,0xaa,0xff,0xff,0xaa,0xaa,
 0xff,0xff};
