#define pattern5_width 16
#define pattern5_height 16
static char pattern5_bits[] = {
 0xaa,0xaa,0x11,0x11,0xaa,0xaa,0x11,0x11,0xaa,0xaa,0x11,0x11,0xaa,0xaa,0x11,
 0x11,0xaa,0xaa,0x11,0x11,0xaa,0xaa,0x11,0x11,0xaa,0xaa,0x11,0x11,0xaa,0xaa,
 0x11,0x11};
