#define pattern3_width 16
#define pattern3_height 16
static char pattern3_bits[] = {
 0xaa,0xaa,0x00,0x00,0x22,0x22,0x00,0x00,0xaa,0xaa,0x00,0x00,0x22,0x22,0x00,
 0x00,0xaa,0xaa,0x00,0x00,0x22,0x22,0x00,0x00,0xaa,0xaa,0x00,0x00,0x22,0x22,
 0x00,0x00};
