#define pen_width 20
#define pen_height 20
static unsigned char pen_bits[] = {
   0x00, 0x00, 0x00, 0x00, 0x00, 0x01, 0x00, 0x80, 0x02, 0x00, 0x40, 0x04,
   0x00, 0x20, 0x02, 0x00, 0x10, 0x01, 0x00, 0x88, 0x00, 0x00, 0x44, 0x00,
   0x00, 0x22, 0x00, 0x00, 0x11, 0x00, 0x80, 0x08, 0x00, 0x40, 0x04, 0x00,
   0x20, 0x02, 0x00, 0x10, 0x01, 0x00, 0xa8, 0x00, 0x00, 0x48, 0x00, 0x00,
   0x3c, 0x00, 0x00, 0x0c, 0x00, 0x00, 0x02, 0x00, 0x00, 0x00, 0x00, 0x00};
