#define pen1_width 27
#define pen1_height 27
static unsigned char pen1_bits[] = {
   0x00, 0x00, 0x00, 0x00, 0x00, 0x00, 0x00, 0x00, 0x00, 0x00, 0x00, 0x00,
   0x00, 0x00, 0x20, 0x00, 0x00, 0x00, 0x50, 0x00, 0x00, 0x00, 0x88, 0x00,
   0x00, 0x00, 0x54, 0x00, 0x00, 0x00, 0x22, 0x00, 0x00, 0x00, 0x11, 0x00,
   0x00, 0x80, 0x08, 0x00, 0x00, 0x40, 0x04, 0x00, 0x00, 0x20, 0x02, 0x00,
   0x00, 0x10, 0x01, 0x00, 0x00, 0x88, 0x00, 0x00, 0x00, 0x44, 0x00, 0x00,
   0x00, 0x22, 0x00, 0x00, 0x00, 0x11, 0x00, 0x00, 0x80, 0x08, 0x00, 0x00,
   0x40, 0x04, 0x00, 0x00, 0xa0, 0x02, 0x00, 0x00, 0x20, 0x01, 0x00, 0x00,
   0xf0, 0x00, 0x00, 0x00, 0x30, 0x00, 0x00, 0x00, 0x08, 0x00, 0x00, 0x00,
   0x00, 0x00, 0x00, 0x00, 0x00, 0x00, 0x00, 0x00, 0x00, 0x00, 0x00, 0x00};
