#define pointer_width 25
#define pointer_height 25
static unsigned char pointer_bits[] = {
   0x00, 0x00, 0x00, 0x00, 0x00, 0x00, 0x00, 0x00, 0xe0, 0x00, 0x00, 0x00,
   0xa0, 0x00, 0x00, 0x00, 0xb0, 0x01, 0x00, 0x00, 0x50, 0x01, 0x00, 0x00,
   0x10, 0x01, 0x00, 0x00, 0x10, 0x01, 0x00, 0x00, 0x10, 0x01, 0x00, 0x00,
   0x10, 0x01, 0x00, 0x00, 0x10, 0x01, 0x00, 0x00, 0x10, 0x0f, 0x00, 0x00,
   0x10, 0xf1, 0x00, 0x00, 0x10, 0x11, 0x07, 0x00, 0x10, 0x11, 0x09, 0x00,
   0x10, 0x11, 0x11, 0x00, 0x10, 0x11, 0x11, 0x00, 0x10, 0x00, 0x10, 0x00,
   0x10, 0x00, 0x10, 0x00, 0x10, 0x00, 0x10, 0x00, 0x10, 0x00, 0x10, 0x00,
   0x20, 0x00, 0x10, 0x00, 0xc0, 0xff, 0x0f, 0x00, 0x00, 0x00, 0x00, 0x00,
   0x00, 0x00, 0x00, 0x00};
