#define preg_width 32
#define preg_height 32
static char preg_bits[] = {
 0x00,0x00,0x00,0x00,0x00,0x00,0x00,0x00,0x00,0xe0,0x07,0x00,0x00,0xf8,0x1f,
 0x00,0x00,0xfe,0x7f,0x00,0x00,0x1e,0x78,0x00,0x00,0x0f,0xf0,0x00,0x80,0x03,
 0xc0,0x01,0xc0,0x03,0xc0,0x03,0xc0,0x01,0x80,0x03,0xc0,0x01,0x80,0x03,0xc0,
 0x01,0x80,0x03,0xc0,0x01,0x80,0x03,0x80,0x00,0xc0,0x01,0x00,0x00,0xe0,0x01,
 0x00,0x00,0xf0,0x00,0x00,0x00,0x78,0x00,0x00,0x00,0x3c,0x00,0x00,0x80,0x1f,
 0x00,0x00,0xc0,0x0f,0x00,0x00,0xc0,0x03,0x00,0x00,0xc0,0x01,0x00,0x00,0xc0,
 0x01,0x00,0x00,0xc0,0x01,0x00,0x00,0xc0,0x01,0x00,0x00,0xc0,0x01,0x00,0x00,
 0x00,0x00,0x00,0x00,0x00,0x00,0x00,0x00,0xc0,0x01,0x00,0x00,0xc0,0x01,0x00,
 0x00,0x00,0x00,0x00,0x00,0x00,0x00,0x00};
