#define preg_icono_width 20
#define preg_icono_height 20
static char preg_icono_bits[] = {
 0x00,0x00,0x00,0x00,0x00,0x00,0x00,0x1f,0x00,0x80,0x20,0x00,0x40,0x40,0x00,
 0x20,0x80,0x00,0x20,0x80,0x00,0x00,0x80,0x00,0x00,0x80,0x00,0x00,0x80,0x00,
 0x00,0x60,0x00,0x00,0x10,0x00,0x00,0x08,0x00,0x00,0x04,0x00,0x00,0x04,0x00,
 0x00,0x04,0x00,0x00,0x00,0x00,0x00,0x04,0x00,0x00,0x00,0x00,0x00,0x00,0x00
 };
