#define pro_width 20
#define pro_height 20
static char pro_bits[] = {
 0x00,0x00,0x00,0x80,0x0f,0x00,0xe0,0x3f,0x00,0xf0,0x7f,0x00,0xf8,0xff,0x00,
 0xfc,0xff,0x01,0xfc,0xff,0x01,0xfe,0xff,0x03,0x0e,0x80,0x03,0x0e,0x80,0x03,
 0x0e,0x80,0x03,0xfe,0xff,0x03,0xfc,0xff,0x01,0xfc,0xff,0x01,0xf8,0xff,0x00,
 0xf0,0x7f,0x00,0xe0,0x3f,0x00,0x80,0x0f,0x00,0x00,0x00,0x00,0x00,0x00,0x00
 };
