#define puntero_us_width 20
#define puntero_us_height 20
static char puntero_us_bits[] = {
 0x00,0x70,0x00,0x00,0x68,0x00,0x00,0x54,0x00,0x00,0x2a,0x00,0x00,0x15,0x00,
 0x80,0x0a,0x00,0x40,0x05,0x00,0xa0,0x0b,0x00,0xa0,0x17,0x00,0xa8,0x2f,0x00,
 0xd4,0x2f,0x00,0xa2,0x2f,0x00,0x44,0x17,0x00,0x88,0x0a,0x00,0x10,0x05,0x00,
 0x20,0x02,0x00,0x40,0x05,0x00,0x80,0x0a,0x00,0x00,0x05,0x00,0x00,0x02,0x00
 };
