#define rectangle1_width 27
#define rectangle1_height 27
static unsigned char rectangle1_bits[] = {
   0x00, 0x00, 0x00, 0x00, 0x00, 0x00, 0x00, 0x00, 0x00, 0x00, 0x00, 0x00,
   0x1c, 0x00, 0x00, 0x00, 0xfc, 0xff, 0x7f, 0x00, 0x1c, 0x00, 0x40, 0x00,
   0x10, 0x00, 0x40, 0x00, 0x10, 0x00, 0x40, 0x00, 0x10, 0x00, 0x40, 0x00,
   0x10, 0x00, 0x40, 0x00, 0x10, 0x00, 0x40, 0x00, 0x10, 0x00, 0x40, 0x00,
   0x10, 0x00, 0x40, 0x00, 0x10, 0x00, 0x40, 0x00, 0x10, 0x00, 0x40, 0x00,
   0x10, 0x00, 0x40, 0x00, 0x10, 0x00, 0x40, 0x00, 0x10, 0x00, 0x40, 0x00,
   0x10, 0x00, 0x40, 0x00, 0x10, 0x00, 0x40, 0x00, 0x10, 0x00, 0x40, 0x00,
   0x10, 0x00, 0xc0, 0x01, 0xf0, 0xff, 0xff, 0x01, 0x00, 0x00, 0xc0, 0x01,
   0x00, 0x00, 0x00, 0x00, 0x00, 0x00, 0x00, 0x00, 0x00, 0x00, 0x00, 0x00};
