#define rectangle_width 20
#define rectangle_height 20
static char rectangle_bits[] = {
 0x00,0x00,0x00,0x06,0x00,0x00,0xfe,0xff,0x03,0x04,0x00,0x02,0x04,0x00,0x02,
 0x04,0x00,0x02,0x04,0x00,0x02,0x04,0x00,0x02,0x04,0x00,0x02,0x04,0x00,0x02,
 0x04,0x00,0x02,0x04,0x00,0x02,0x04,0x00,0x02,0x04,0x00,0x02,0x04,0x00,0x02,
 0x04,0x00,0x02,0x04,0x00,0x02,0xfc,0xff,0x07,0x00,0x00,0x06,0x00,0x00,0x00
 };
