#define sen_icono_width 20
#define sen_icono_height 20
static char sen_icono_bits[] = {
 0x00,0x00,0x00,0x00,0x00,0x00,0x80,0x1f,0x00,0x60,0x60,0x00,0x30,0xc0,0x00,
 0x48,0x00,0x01,0x88,0x00,0x01,0x04,0x01,0x02,0x04,0x02,0x02,0x04,0x04,0x02,
 0x04,0x08,0x02,0x04,0x10,0x02,0x04,0x20,0x02,0x08,0x40,0x01,0x08,0x80,0x01,
 0x30,0xc0,0x01,0x60,0x60,0x00,0x80,0x1f,0x00,0x00,0x00,0x00,0x00,0x00,0x00
 };
