#define stop_width 30
#define stop_height 30
static char stop_bits[] = {
 0x00,0x00,0x00,0x00,0x00,0x00,0x00,0x00,0x00,0x00,0x00,0x00,0x00,0xfc,0x0f,
 0x00,0x00,0xfe,0x1f,0x00,0x00,0x07,0x38,0x00,0x80,0x03,0x70,0x00,0xc0,0x01,
 0xe0,0x00,0xe0,0x00,0xc0,0x01,0x70,0x00,0x80,0x03,0x38,0x00,0x00,0x07,0x18,
 0x00,0x00,0x06,0x18,0x00,0x00,0x06,0x18,0x3b,0x19,0x06,0x98,0x90,0x2a,0x06,
 0x98,0x93,0x1a,0x06,0x18,0x92,0x0a,0x06,0x98,0x11,0x09,0x06,0x18,0x00,0x00,
 0x06,0x38,0x00,0x00,0x07,0x70,0x00,0x80,0x03,0xe0,0x00,0xc0,0x01,0xc0,0x01,
 0xe0,0x00,0x80,0x03,0x70,0x00,0x00,0x07,0x38,0x00,0x00,0xfe,0x1f,0x00,0x00,
 0xfc,0x0f,0x00,0x00,0x00,0x00,0x00,0x00,0x00,0x00,0x00,0x00,0x00,0x00,0x00
 };
