#define stop_icono_width 20
#define stop_icono_height 20
static char stop_icono_bits[] = {
 0x00,0x00,0x00,0xc0,0x1f,0x00,0xe0,0x3f,0x00,0x70,0x70,0x00,0x38,0xe0,0x00,
 0x1c,0xc0,0x01,0x0e,0x80,0x03,0x07,0x00,0x07,0xf3,0x65,0x06,0x8b,0xaa,0x06,
 0xb3,0x6a,0x06,0xa3,0x2a,0x06,0x9b,0x24,0x06,0x07,0x00,0x07,0x0e,0x80,0x03,
 0x1c,0xc0,0x01,0x38,0xe0,0x00,0x70,0x70,0x00,0xe0,0x3f,0x00,0xc0,0x1f,0x00
 };
