#define texto_width 20
#define texto_height 20
static char texto_bits[] = {
 0x00,0x00,0x00,0x00,0x00,0x00,0xf8,0xff,0x01,0xf8,0xff,0x01,0x08,0x06,0x01,
 0x08,0x06,0x01,0x00,0x06,0x00,0x00,0x06,0x00,0x00,0x06,0x00,0x00,0x06,0x00,
 0x00,0x06,0x00,0x00,0x06,0x00,0x00,0x06,0x00,0x00,0x06,0x00,0x00,0x06,0x00,
 0x00,0x06,0x00,0x00,0x0f,0x00,0x80,0x1f,0x00,0x00,0x00,0x00,0x00,0x00,0x00
 };
