#define tri_width 30
#define tri_height 30
static char tri_bits[] = {
 0x00,0x00,0x00,0x00,0x00,0x00,0x00,0x00,0x00,0x00,0x00,0x00,0x00,0x00,0x00,
 0x00,0x00,0x80,0x00,0x00,0x00,0xc0,0x01,0x00,0x00,0xc0,0x01,0x00,0x00,0x60,
 0x03,0x00,0x00,0x60,0x03,0x00,0x00,0x30,0x06,0x00,0x00,0x30,0x06,0x00,0x00,
 0x18,0x0c,0x00,0x00,0x08,0x08,0x00,0x00,0x0c,0x18,0x00,0x00,0x06,0x30,0x00,
 0x00,0x06,0x30,0x00,0x00,0x03,0x60,0x00,0x00,0x03,0x60,0x00,0x80,0x01,0xc0,
 0x00,0xc0,0x00,0x80,0x01,0xc0,0x00,0x80,0x01,0x60,0x00,0x00,0x03,0x60,0x00,
 0x00,0x03,0xf0,0xff,0xff,0x07,0xf0,0xff,0xff,0x07,0x00,0x00,0x00,0x00,0x00,
 0x00,0x00,0x00,0x00,0x00,0x00,0x00,0x00,0x00,0x00,0x00,0x00,0x00,0x00,0x00
 };
