#define tri_icono_width 20
#define tri_icono_height 20
static char tri_icono_bits[] = {
 0x00,0x00,0x00,0x00,0x00,0x00,0x00,0x04,0x00,0x00,0x0e,0x00,0x00,0x0e,0x00,
 0x00,0x1b,0x00,0x80,0x3b,0x00,0x80,0x31,0x00,0xc0,0x60,0x00,0xc0,0x60,0x00,
 0x60,0xc0,0x00,0x60,0xc0,0x00,0x30,0x80,0x01,0x30,0x80,0x01,0x18,0x00,0x03,
 0xf8,0xff,0x03,0xfc,0xff,0x07,0x00,0x00,0x00,0x00,0x00,0x00,0x00,0x00,0x00
 };
