#define tri_icono1_width 27
#define tri_icono1_height 27
static unsigned char tri_icono1_bits[] = {
   0x00, 0x00, 0x00, 0x00, 0x00, 0x00, 0x00, 0x00, 0x00, 0x00, 0x00, 0x00,
   0x00, 0x00, 0x00, 0x00, 0x00, 0x00, 0x00, 0x00, 0x00, 0x20, 0x00, 0x00,
   0x00, 0x70, 0x00, 0x00, 0x00, 0x70, 0x00, 0x00, 0x00, 0xd8, 0x00, 0x00,
   0x00, 0xdc, 0x01, 0x00, 0x00, 0x8c, 0x01, 0x00, 0x00, 0x06, 0x03, 0x00,
   0x00, 0x06, 0x03, 0x00, 0x00, 0x03, 0x06, 0x00, 0x00, 0x03, 0x06, 0x00,
   0x80, 0x01, 0x0c, 0x00, 0x80, 0x01, 0x0c, 0x00, 0xc0, 0x00, 0x18, 0x00,
   0xc0, 0xff, 0x1f, 0x00, 0xe0, 0xff, 0x3f, 0x00, 0x00, 0x00, 0x00, 0x00,
   0x00, 0x00, 0x00, 0x00, 0x00, 0x00, 0x00, 0x00, 0x00, 0x00, 0x00, 0x00,
   0x00, 0x00, 0x00, 0x00, 0x00, 0x00, 0x00, 0x00, 0x00, 0x00, 0x00, 0x00};
