/*
 * noise.xbm -- filled (on)  led for vumeter
 *

 * $ww$ : edit with ts= 4

 * $id$ : dit.upm.es -- @(#)noise.xbm	5.1

 * $au$ : mpetit@dit.upm.es

 */




const char noise_idString[]= "$id$ : dit.upm.es -- @(#)noise.xbm	5.1";



#define noise_width 16
#define noise_height 6
static const char noise_bits[] = {
   0x00, 0x00, 0xfe, 0x7f, 0xfe, 0x7f, 0xfe, 0x7f, 0xfe, 0x7f, 0x00, 0x00};
